<?xml version="1.0" encoding="UTF-8" standalone="no"?>
<!DOCTYPE svg PUBLIC "-//W3C//DTD SVG 1.1//EN"
 "http://www.w3.org/Graphics/SVG/1.1/DTD/svg11.dtd">
<!-- Generated by graphviz version 13.0.1 (0)
 -->
<!-- Title: G Pages: 1 -->
<svg width="711pt" height="815pt"
 viewBox="0.00 0.00 711.00 815.00" xmlns="http://www.w3.org/2000/svg" xmlns:xlink="http://www.w3.org/1999/xlink">
<g id="graph0" class="graph" transform="scale(1 1) rotate(0) translate(4 811.41)">
<title>G</title><style>.edge>path:hover{stroke-width:8}</style>
<polygon fill="white" stroke="none" points="-4,4 -4,-811.41 706.61,-811.41 706.61,4 -4,4"/>
<!-- keras -->
<g id="node1" class="node">
<title>keras</title><style>.edge>path:hover{stroke-width:8}</style>
<polygon fill="blue" stroke="black" points="65.89,-807.41 62.89,-811.41 41.89,-811.41 38.89,-807.41 11.89,-807.41 11.89,-771.41 65.89,-771.41 65.89,-807.41"/>
<text xml:space="preserve" text-anchor="middle" x="38.89" y="-785.91" font-family="Helvetica,sans-Serif" font-size="10.00" fill="white">keras</text>
</g>
<!-- music_generation_lstm_models_model_io -->
<g id="node11" class="node">
<title>music_generation_lstm_models_model_io</title><style>.edge>path:hover{stroke-width:8}</style>
<ellipse fill="#439d67" stroke="black" cx="38.89" cy="-435.85" rx="38.89" ry="31.11"/>
<text xml:space="preserve" text-anchor="middle" x="38.89" y="-444.35" font-family="Helvetica,sans-Serif" font-size="10.00" fill="#ffffff">lstm.</text>
<text xml:space="preserve" text-anchor="middle" x="38.89" y="-432.35" font-family="Helvetica,sans-Serif" font-size="10.00" fill="#ffffff">models.</text>
<text xml:space="preserve" text-anchor="middle" x="38.89" y="-420.35" font-family="Helvetica,sans-Serif" font-size="10.00" fill="#ffffff">model_io</text>
</g>
<!-- keras&#45;&gt;music_generation_lstm_models_model_io -->
<g id="edge1" class="edge">
<title>keras&#45;&gt;music_generation_lstm_models_model_io</title><style>.edge>path:hover{stroke-width:8}</style>
<path fill="none" stroke="black" d="M37.17,-771C36.18,-756.74 35.67,-736.11 38.89,-718.41"/>
<path fill="none" stroke="black" d="M38.89,-716.41C54.05,-633 48.52,-533.25 43.48,-478.3"/>
<polygon fill="blue" stroke="black" points="46.98,-478.08 42.53,-468.46 40.01,-478.75 46.98,-478.08"/>
</g>
<!-- music_generation_lstm_models_models -->
<g id="node12" class="node">
<title>music_generation_lstm_models_models</title><style>.edge>path:hover{stroke-width:8}</style>
<ellipse fill="#439d67" stroke="black" cx="102.89" cy="-632.3" rx="35.71" ry="31.11"/>
<text xml:space="preserve" text-anchor="middle" x="102.89" y="-640.8" font-family="Helvetica,sans-Serif" font-size="10.00" fill="#ffffff">lstm.</text>
<text xml:space="preserve" text-anchor="middle" x="102.89" y="-628.8" font-family="Helvetica,sans-Serif" font-size="10.00" fill="#ffffff">models.</text>
<text xml:space="preserve" text-anchor="middle" x="102.89" y="-616.8" font-family="Helvetica,sans-Serif" font-size="10.00" fill="#ffffff">models</text>
</g>
<!-- keras&#45;&gt;music_generation_lstm_models_models -->
<g id="edge2" class="edge">
<title>keras&#45;&gt;music_generation_lstm_models_models</title><style>.edge>path:hover{stroke-width:8}</style>
<path fill="none" stroke="black" d="M38.89,-716.41C42.65,-695.74 56.02,-676.82 69.57,-662.28"/>
<polygon fill="blue" stroke="black" points="71.91,-664.89 76.44,-655.31 66.92,-659.97 71.91,-664.89"/>
</g>
<!-- music21 -->
<g id="node2" class="node">
<title>music21</title><style>.edge>path:hover{stroke-width:8}</style>
<polygon fill="blue" stroke="black" points="466.89,-807.41 463.89,-811.41 442.89,-811.41 439.89,-807.41 412.89,-807.41 412.89,-771.41 466.89,-771.41 466.89,-807.41"/>
<text xml:space="preserve" text-anchor="middle" x="439.89" y="-785.91" font-family="Helvetica,sans-Serif" font-size="10.00" fill="white">music21</text>
</g>
<!-- music_generation_lstm_midi_parser -->
<g id="node8" class="node">
<title>music_generation_lstm_midi_parser</title><style>.edge>path:hover{stroke-width:8}</style>
<ellipse fill="#38a865" stroke="black" cx="583.89" cy="-534.07" rx="30.41" ry="31.11"/>
<text xml:space="preserve" text-anchor="middle" x="583.89" y="-542.57" font-family="Helvetica,sans-Serif" font-size="10.00" fill="#ffffff">lstm.</text>
<text xml:space="preserve" text-anchor="middle" x="583.89" y="-530.57" font-family="Helvetica,sans-Serif" font-size="10.00" fill="#ffffff">midi.</text>
<text xml:space="preserve" text-anchor="middle" x="583.89" y="-518.57" font-family="Helvetica,sans-Serif" font-size="10.00" fill="#ffffff">parser</text>
</g>
<!-- music21&#45;&gt;music_generation_lstm_midi_parser -->
<g id="edge3" class="edge">
<title>music21&#45;&gt;music_generation_lstm_midi_parser</title><style>.edge>path:hover{stroke-width:8}</style>
<path fill="none" stroke="black" d="M467.12,-783.14C529.98,-769.34 678.52,-726.57 660.89,-633.3"/>
<path fill="none" stroke="black" d="M660.89,-631.3C661.41,-615.56 635.88,-586.11 614.08,-563.92"/>
<polygon fill="blue" stroke="black" points="616.59,-561.47 607.04,-556.88 611.64,-566.42 616.59,-561.47"/>
</g>
<!-- music_generation_lstm_midi_writer -->
<g id="node9" class="node">
<title>music_generation_lstm_midi_writer</title><style>.edge>path:hover{stroke-width:8}</style>
<ellipse fill="#49ac71" stroke="black" cx="660.89" cy="-534.07" rx="28.28" ry="31.11"/>
<text xml:space="preserve" text-anchor="middle" x="660.89" y="-542.57" font-family="Helvetica,sans-Serif" font-size="10.00" fill="#000000">lstm.</text>
<text xml:space="preserve" text-anchor="middle" x="660.89" y="-530.57" font-family="Helvetica,sans-Serif" font-size="10.00" fill="#000000">midi.</text>
<text xml:space="preserve" text-anchor="middle" x="660.89" y="-518.57" font-family="Helvetica,sans-Serif" font-size="10.00" fill="#000000">writer</text>
</g>
<!-- music21&#45;&gt;music_generation_lstm_midi_writer -->
<g id="edge4" class="edge">
<title>music21&#45;&gt;music_generation_lstm_midi_writer</title><style>.edge>path:hover{stroke-width:8}</style>
<path fill="none" stroke="black" d="M660.89,-631.3C661.49,-613.39 661.58,-593.6 661.49,-576.65"/>
<polygon fill="blue" stroke="black" points="665,-576.9 661.42,-566.93 658,-576.96 665,-576.9"/>
</g>
<!-- music_generation_lstm_tokenization_tokenizer -->
<g id="node18" class="node">
<title>music_generation_lstm_tokenization_tokenizer</title><style>.edge>path:hover{stroke-width:8}</style>
<ellipse fill="#28a35a" stroke="black" cx="135.89" cy="-534.07" rx="50.56" ry="31.11"/>
<text xml:space="preserve" text-anchor="middle" x="135.89" y="-542.57" font-family="Helvetica,sans-Serif" font-size="10.00" fill="#ffffff">lstm.</text>
<text xml:space="preserve" text-anchor="middle" x="135.89" y="-530.57" font-family="Helvetica,sans-Serif" font-size="10.00" fill="#ffffff">tokenization.</text>
<text xml:space="preserve" text-anchor="middle" x="135.89" y="-518.57" font-family="Helvetica,sans-Serif" font-size="10.00" fill="#ffffff">tokenizer</text>
</g>
<!-- music21&#45;&gt;music_generation_lstm_tokenization_tokenizer -->
<g id="edge5" class="edge">
<title>music21&#45;&gt;music_generation_lstm_tokenization_tokenizer</title><style>.edge>path:hover{stroke-width:8}</style>
<path fill="none" stroke="black" d="M412.53,-780.59C363.79,-765.41 261.24,-727.7 198.89,-663.41 174.97,-638.75 158.5,-603.23 148.41,-575.81"/>
<polygon fill="blue" stroke="black" points="151.73,-574.69 145.11,-566.42 145.13,-577.01 151.73,-574.69"/>
</g>
<!-- music_generation_lstm_cli -->
<g id="node3" class="node">
<title>music_generation_lstm_cli</title><style>.edge>path:hover{stroke-width:8}</style>
<ellipse fill="#3db86e" stroke="black" cx="141.89" cy="-90" rx="28.56" ry="18"/>
<text xml:space="preserve" text-anchor="middle" x="141.89" y="-86.5" font-family="Helvetica,sans-Serif" font-size="10.00" fill="#000000">lstm.cli</text>
</g>
<!-- music_generation_lstm_main -->
<g id="node6" class="node">
<title>music_generation_lstm_main</title><style>.edge>path:hover{stroke-width:8}</style>
<ellipse fill="#49ac71" stroke="black" cx="141.89" cy="-18" rx="35.33" ry="18"/>
<text xml:space="preserve" text-anchor="middle" x="141.89" y="-14.5" font-family="Helvetica,sans-Serif" font-size="10.00" fill="#000000">lstm.main</text>
</g>
<!-- music_generation_lstm_cli&#45;&gt;music_generation_lstm_main -->
<g id="edge6" class="edge">
<title>music_generation_lstm_cli&#45;&gt;music_generation_lstm_main</title><style>.edge>path:hover{stroke-width:8}</style>
<path fill="none" stroke="black" d="M141.89,-71.7C141.89,-64.41 141.89,-55.73 141.89,-47.54"/>
<polygon fill="#3db86e" stroke="black" points="145.39,-47.62 141.89,-37.62 138.39,-47.62 145.39,-47.62"/>
</g>
<!-- music_generation_lstm_config -->
<g id="node4" class="node">
<title>music_generation_lstm_config</title><style>.edge>path:hover{stroke-width:8}</style>
<ellipse fill="#2fdb73" stroke="black" cx="381.89" cy="-717.41" rx="38.49" ry="18"/>
<text xml:space="preserve" text-anchor="middle" x="381.89" y="-713.91" font-family="Helvetica,sans-Serif" font-size="10.00" fill="#000000">lstm.config</text>
</g>
<!-- music_generation_lstm_config&#45;&gt;music_generation_lstm_midi_parser -->
<g id="edge7" class="edge">
<title>music_generation_lstm_config&#45;&gt;music_generation_lstm_midi_parser</title><style>.edge>path:hover{stroke-width:8}</style>
<path fill="none" stroke="black" d="M420.83,-716.68C462.95,-714.71 528.88,-704.64 564.89,-663.41 585.38,-639.96 589.28,-604.41 588.53,-576.67"/>
<polygon fill="#2fdb73" stroke="black" points="592.03,-576.64 588.04,-566.82 585.04,-576.99 592.03,-576.64"/>
</g>
<!-- music_generation_lstm_processing_process -->
<g id="node15" class="node">
<title>music_generation_lstm_processing_process</title><style>.edge>path:hover{stroke-width:8}</style>
<ellipse fill="#38a865" stroke="black" cx="180.89" cy="-337.62" rx="46.85" ry="31.11"/>
<text xml:space="preserve" text-anchor="middle" x="180.89" y="-346.12" font-family="Helvetica,sans-Serif" font-size="10.00" fill="#ffffff">lstm.</text>
<text xml:space="preserve" text-anchor="middle" x="180.89" y="-334.12" font-family="Helvetica,sans-Serif" font-size="10.00" fill="#ffffff">processing.</text>
<text xml:space="preserve" text-anchor="middle" x="180.89" y="-322.12" font-family="Helvetica,sans-Serif" font-size="10.00" fill="#ffffff">process</text>
</g>
<!-- music_generation_lstm_config&#45;&gt;music_generation_lstm_processing_process -->
<g id="edge8" class="edge">
<title>music_generation_lstm_config&#45;&gt;music_generation_lstm_processing_process</title><style>.edge>path:hover{stroke-width:8}</style>
<path fill="none" stroke="black" d="M212.89,-631.3C184.22,-599.55 220.31,-577.5 214.89,-535.07"/>
<path fill="none" stroke="black" d="M214.89,-533.07C208.11,-479.97 196.94,-419.27 189.27,-380.02"/>
<polygon fill="#2fdb73" stroke="black" points="192.72,-379.42 187.35,-370.29 185.85,-380.78 192.72,-379.42"/>
</g>
<!-- music_generation_lstm_config&#45;&gt;music_generation_lstm_tokenization_tokenizer -->
<g id="edge9" class="edge">
<title>music_generation_lstm_config&#45;&gt;music_generation_lstm_tokenization_tokenizer</title><style>.edge>path:hover{stroke-width:8}</style>
<path fill="none" stroke="black" d="M345.89,-710.64C313.28,-703.92 265.35,-690.12 231.89,-663.41 219.52,-653.54 223.5,-645.04 212.89,-633.3"/>
<path fill="none" stroke="black" d="M212.89,-631.3C195.72,-612.28 177.76,-590 163.51,-571.66"/>
<polygon fill="#2fdb73" stroke="black" points="166.43,-569.72 157.55,-563.94 160.89,-574 166.43,-569.72"/>
</g>
<!-- music_generation_lstm_controller -->
<g id="node5" class="node">
<title>music_generation_lstm_controller</title><style>.edge>path:hover{stroke-width:8}</style>
<ellipse fill="#309157" stroke="black" cx="141.89" cy="-166.63" rx="39.42" ry="22.63"/>
<text xml:space="preserve" text-anchor="middle" x="141.89" y="-169.13" font-family="Helvetica,sans-Serif" font-size="10.00" fill="#ffffff">lstm.</text>
<text xml:space="preserve" text-anchor="middle" x="141.89" y="-157.13" font-family="Helvetica,sans-Serif" font-size="10.00" fill="#ffffff">controller</text>
</g>
<!-- music_generation_lstm_controller&#45;&gt;music_generation_lstm_cli -->
<g id="edge10" class="edge">
<title>music_generation_lstm_controller&#45;&gt;music_generation_lstm_cli</title><style>.edge>path:hover{stroke-width:8}</style>
<path fill="none" stroke="black" d="M141.89,-143.64C141.89,-136.1 141.89,-127.56 141.89,-119.57"/>
<polygon fill="#309157" stroke="black" points="145.39,-119.61 141.89,-109.61 138.39,-119.61 145.39,-119.61"/>
</g>
<!-- music_generation_lstm_midi -->
<g id="node7" class="node">
<title>music_generation_lstm_midi</title><style>.edge>path:hover{stroke-width:8}</style>
<ellipse fill="#47c278" stroke="black" cx="43.89" cy="-247.88" rx="33.52" ry="18"/>
<text xml:space="preserve" text-anchor="middle" x="43.89" y="-244.38" font-family="Helvetica,sans-Serif" font-size="10.00" fill="#000000">lstm.midi</text>
</g>
<!-- music_generation_lstm_midi&#45;&gt;music_generation_lstm_controller -->
<g id="edge11" class="edge">
<title>music_generation_lstm_midi&#45;&gt;music_generation_lstm_controller</title><style>.edge>path:hover{stroke-width:8}</style>
<path fill="none" stroke="black" d="M61.87,-232.35C75.57,-221.26 94.78,-205.72 110.95,-192.65"/>
<polygon fill="#47c278" stroke="black" points="112.81,-195.65 118.38,-186.64 108.4,-190.21 112.81,-195.65"/>
</g>
<!-- music_generation_lstm_midi_parser&#45;&gt;music_generation_lstm_controller -->
<g id="edge12" class="edge">
<title>music_generation_lstm_midi_parser&#45;&gt;music_generation_lstm_controller</title><style>.edge>path:hover{stroke-width:8}</style>
<path fill="none" stroke="black" d="M606.25,-512.84C650.35,-470.52 739.7,-371.27 684.89,-306.51 584.74,-188.19 457.84,-350.64 340.89,-248.88"/>
</g>
<!-- music_generation_lstm_models_lazy_sequence_generator -->
<g id="node10" class="node">
<title>music_generation_lstm_models_lazy_sequence_generator</title><style>.edge>path:hover{stroke-width:8}</style>
<ellipse fill="#49ac71" stroke="black" cx="585.89" cy="-337.62" rx="89.8" ry="31.11"/>
<text xml:space="preserve" text-anchor="middle" x="585.89" y="-346.12" font-family="Helvetica,sans-Serif" font-size="10.00" fill="#000000">lstm.</text>
<text xml:space="preserve" text-anchor="middle" x="585.89" y="-334.12" font-family="Helvetica,sans-Serif" font-size="10.00" fill="#000000">models.</text>
<text xml:space="preserve" text-anchor="middle" x="585.89" y="-322.12" font-family="Helvetica,sans-Serif" font-size="10.00" fill="#000000">lazy_sequence_generator</text>
</g>
<!-- music_generation_lstm_models_train -->
<g id="node13" class="node">
<title>music_generation_lstm_models_train</title><style>.edge>path:hover{stroke-width:8}</style>
<ellipse fill="#4cb375" stroke="black" cx="319.89" cy="-337.62" rx="35.71" ry="31.11"/>
<text xml:space="preserve" text-anchor="middle" x="319.89" y="-346.12" font-family="Helvetica,sans-Serif" font-size="10.00" fill="#000000">lstm.</text>
<text xml:space="preserve" text-anchor="middle" x="319.89" y="-334.12" font-family="Helvetica,sans-Serif" font-size="10.00" fill="#000000">models.</text>
<text xml:space="preserve" text-anchor="middle" x="319.89" y="-322.12" font-family="Helvetica,sans-Serif" font-size="10.00" fill="#000000">train</text>
</g>
<!-- music_generation_lstm_processing -->
<g id="node14" class="node">
<title>music_generation_lstm_processing</title><style>.edge>path:hover{stroke-width:8}</style>
<ellipse fill="#47c278" stroke="black" cx="178.89" cy="-247.88" rx="44.72" ry="22.63"/>
<text xml:space="preserve" text-anchor="middle" x="178.89" y="-250.38" font-family="Helvetica,sans-Serif" font-size="10.00" fill="#000000">lstm.</text>
<text xml:space="preserve" text-anchor="middle" x="178.89" y="-238.38" font-family="Helvetica,sans-Serif" font-size="10.00" fill="#000000">processing</text>
</g>
<!-- music_generation_lstm_processing&#45;&gt;music_generation_lstm_controller -->
<g id="edge13" class="edge">
<title>music_generation_lstm_processing&#45;&gt;music_generation_lstm_controller</title><style>.edge>path:hover{stroke-width:8}</style>
<path fill="none" stroke="black" d="M168.98,-225.64C165.2,-217.56 160.81,-208.16 156.69,-199.32"/>
<polygon fill="#47c278" stroke="black" points="159.88,-197.88 152.47,-190.3 153.53,-200.84 159.88,-197.88"/>
</g>
<!-- music_generation_lstm_processing_process&#45;&gt;music_generation_lstm_controller -->
<g id="edge14" class="edge">
<title>music_generation_lstm_processing_process&#45;&gt;music_generation_lstm_controller</title><style>.edge>path:hover{stroke-width:8}</style>
<path fill="none" stroke="black" d="M218.29,-318.24C267.21,-293.91 346.17,-253.53 340.89,-248.88"/>
<path fill="none" stroke="black" d="M340.89,-246.88C297.72,-208.87 234.07,-187.86 190.45,-177.18"/>
<polygon fill="#38a865" stroke="black" points="191.27,-173.78 180.73,-174.91 189.67,-180.6 191.27,-173.78"/>
</g>
<!-- music_generation_lstm_processing_processed_io -->
<g id="node16" class="node">
<title>music_generation_lstm_processing_processed_io</title><style>.edge>path:hover{stroke-width:8}</style>
<ellipse fill="#40c073" stroke="black" cx="425.89" cy="-337.62" rx="52.15" ry="31.11"/>
<text xml:space="preserve" text-anchor="middle" x="425.89" y="-346.12" font-family="Helvetica,sans-Serif" font-size="10.00" fill="#000000">lstm.</text>
<text xml:space="preserve" text-anchor="middle" x="425.89" y="-334.12" font-family="Helvetica,sans-Serif" font-size="10.00" fill="#000000">processing.</text>
<text xml:space="preserve" text-anchor="middle" x="425.89" y="-322.12" font-family="Helvetica,sans-Serif" font-size="10.00" fill="#000000">processed_io</text>
</g>
<!-- music_generation_lstm_processing_processed_io&#45;&gt;music_generation_lstm_controller -->
<g id="edge15" class="edge">
<title>music_generation_lstm_processing_processed_io&#45;&gt;music_generation_lstm_controller</title><style>.edge>path:hover{stroke-width:8}</style>
<path fill="none" stroke="black" d="M402,-309.82C385.51,-291.86 362.7,-268.08 340.89,-248.88"/>
</g>
<!-- music_generation_lstm_tokenization -->
<g id="node17" class="node">
<title>music_generation_lstm_tokenization</title><style>.edge>path:hover{stroke-width:8}</style>
<ellipse fill="#3bce76" stroke="black" cx="290.89" cy="-534.07" rx="48.44" ry="22.63"/>
<text xml:space="preserve" text-anchor="middle" x="290.89" y="-536.57" font-family="Helvetica,sans-Serif" font-size="10.00" fill="#000000">lstm.</text>
<text xml:space="preserve" text-anchor="middle" x="290.89" y="-524.57" font-family="Helvetica,sans-Serif" font-size="10.00" fill="#000000">tokenization</text>
</g>
<!-- music_generation_lstm_tokenization&#45;&gt;music_generation_lstm_controller -->
<g id="edge16" class="edge">
<title>music_generation_lstm_tokenization&#45;&gt;music_generation_lstm_controller</title><style>.edge>path:hover{stroke-width:8}</style>
<path fill="none" stroke="black" d="M255.89,-434.85C235.93,-380.75 247.25,-357.11 274.89,-306.51 293.56,-272.34 370.12,-274.61 340.89,-248.88"/>
</g>
<!-- music_generation_lstm_tokenization&#45;&gt;music_generation_lstm_processing_process -->
<g id="edge17" class="edge">
<title>music_generation_lstm_tokenization&#45;&gt;music_generation_lstm_processing_process</title><style>.edge>path:hover{stroke-width:8}</style>
<path fill="none" stroke="black" d="M283.03,-511.27C275.97,-491.75 265.31,-462.36 255.89,-436.85"/>
<path fill="none" stroke="black" d="M255.89,-434.85C247.2,-411.28 230.46,-388.9 215,-371.66"/>
<polygon fill="#3bce76" stroke="black" points="217.95,-369.69 208.58,-364.74 212.82,-374.45 217.95,-369.69"/>
</g>
<!-- music_generation_lstm_tokenization_tokenizer&#45;&gt;music_generation_lstm_controller -->
<g id="edge18" class="edge">
<title>music_generation_lstm_tokenization_tokenizer&#45;&gt;music_generation_lstm_controller</title><style>.edge>path:hover{stroke-width:8}</style>
<path fill="none" stroke="black" d="M121.22,-503.89C113.22,-485.17 105.1,-460.11 105.89,-436.85"/>
<path fill="none" stroke="black" d="M105.89,-434.85C109.08,-341.37 107.35,-317.13 124.89,-225.25 126.46,-217.04 128.71,-208.31 131.07,-200.2"/>
<polygon fill="#28a35a" stroke="black" points="134.39,-201.3 133.97,-190.72 127.7,-199.26 134.39,-201.3"/>
</g>
<!-- music_generation_lstm_tokenization_tokenizer&#45;&gt;music_generation_lstm_processing_process -->
<g id="edge19" class="edge">
<title>music_generation_lstm_tokenization_tokenizer&#45;&gt;music_generation_lstm_processing_process</title><style>.edge>path:hover{stroke-width:8}</style>
<path fill="none" stroke="black" d="M105.89,-434.85C106.77,-408.96 123.92,-385.85 141.6,-368.77"/>
<polygon fill="#28a35a" stroke="black" points="143.57,-371.72 148.58,-362.38 138.84,-366.55 143.57,-371.72"/>
</g>
<!-- numpy -->
<g id="node19" class="node">
<title>numpy</title><style>.edge>path:hover{stroke-width:8}</style>
<polygon fill="#196be6" stroke="black" points="294.89,-650.3 291.89,-654.3 270.89,-654.3 267.89,-650.3 240.89,-650.3 240.89,-614.3 294.89,-614.3 294.89,-650.3"/>
<text xml:space="preserve" text-anchor="middle" x="267.89" y="-628.8" font-family="Helvetica,sans-Serif" font-size="10.00" fill="#ffffff">numpy</text>
</g>
<!-- numpy&#45;&gt;music_generation_lstm_models_lazy_sequence_generator -->
<g id="edge20" class="edge">
<title>numpy&#45;&gt;music_generation_lstm_models_lazy_sequence_generator</title><style>.edge>path:hover{stroke-width:8}</style>
<path fill="none" stroke="black" d="M425.89,-434.85C437.4,-399.05 471.33,-375.94 505,-361.36"/>
<polygon fill="#196be6" stroke="black" points="506.08,-364.7 514.01,-357.68 503.43,-358.22 506.08,-364.7"/>
</g>
<!-- numpy&#45;&gt;music_generation_lstm_models_train -->
<g id="edge21" class="edge">
<title>numpy&#45;&gt;music_generation_lstm_models_train</title><style>.edge>path:hover{stroke-width:8}</style>
<path fill="none" stroke="black" d="M294.88,-613.95C338.05,-583.92 418.55,-517.64 425.89,-436.85"/>
<path fill="none" stroke="black" d="M425.89,-434.85C428.91,-425.44 387.27,-390.58 355.29,-365.52"/>
<polygon fill="#196be6" stroke="black" points="357.81,-363.05 347.76,-359.68 353.51,-368.58 357.81,-363.05"/>
</g>
<!-- numpy&#45;&gt;music_generation_lstm_processing_process -->
<g id="edge22" class="edge">
<title>numpy&#45;&gt;music_generation_lstm_processing_process</title><style>.edge>path:hover{stroke-width:8}</style>
<path fill="none" stroke="black" d="M253.02,-613.96C238.74,-595.74 218.78,-565.53 214.89,-535.07"/>
</g>
<!-- numpy&#45;&gt;music_generation_lstm_processing_processed_io -->
<g id="edge23" class="edge">
<title>numpy&#45;&gt;music_generation_lstm_processing_processed_io</title><style>.edge>path:hover{stroke-width:8}</style>
<path fill="none" stroke="black" d="M425.89,-434.85C431.46,-417.53 432.29,-397.54 431.41,-380.28"/>
<polygon fill="#196be6" stroke="black" points="434.9,-380.06 430.67,-370.34 427.92,-380.57 434.9,-380.06"/>
</g>
<!-- tensorflow -->
<g id="node20" class="node">
<title>tensorflow</title><style>.edge>path:hover{stroke-width:8}</style>
<polygon fill="#a640c0" stroke="black" points="555.39,-650.3 552.39,-654.3 531.39,-654.3 528.39,-650.3 494.39,-650.3 494.39,-614.3 555.39,-614.3 555.39,-650.3"/>
<text xml:space="preserve" text-anchor="middle" x="524.89" y="-628.8" font-family="Helvetica,sans-Serif" font-size="10.00" fill="#ffffff">tensorflow</text>
</g>
<!-- tensorflow&#45;&gt;music_generation_lstm_models_lazy_sequence_generator -->
<g id="edge24" class="edge">
<title>tensorflow&#45;&gt;music_generation_lstm_models_lazy_sequence_generator</title><style>.edge>path:hover{stroke-width:8}</style>
<path fill="none" stroke="black" d="M527.06,-614.19C530.3,-589.51 536.89,-542.52 544.89,-502.96 553.42,-460.81 565.58,-413.18 574.45,-380.09"/>
<polygon fill="#a640c0" stroke="black" points="577.81,-381.05 577.04,-370.49 571.05,-379.23 577.81,-381.05"/>
</g>
</g>
</svg>
