<?xml version="1.0" encoding="UTF-8" standalone="no"?>
<!DOCTYPE svg PUBLIC "-//W3C//DTD SVG 1.1//EN"
 "http://www.w3.org/Graphics/SVG/1.1/DTD/svg11.dtd">
<!-- Generated by graphviz version 13.0.1 (0)
 -->
<!-- Title: G Pages: 1 -->
<svg width="902pt" height="728pt"
 viewBox="0.00 0.00 902.00 728.00" xmlns="http://www.w3.org/2000/svg" xmlns:xlink="http://www.w3.org/1999/xlink">
<g id="graph0" class="graph" transform="scale(1 1) rotate(0) translate(4 723.96)">
<title>G</title><style>.edge>path:hover{stroke-width:8}</style>
<polygon fill="white" stroke="none" points="-4,4 -4,-723.96 898.04,-723.96 898.04,4 -4,4"/>
<!-- keras -->
<g id="node1" class="node">
<title>keras</title><style>.edge>path:hover{stroke-width:8}</style>
<polygon fill="blue" stroke="black" points="65.89,-647.96 62.89,-651.96 41.89,-651.96 38.89,-647.96 11.89,-647.96 11.89,-611.96 65.89,-611.96 65.89,-647.96"/>
<text xml:space="preserve" text-anchor="middle" x="38.89" y="-626.46" font-family="Helvetica,sans-Serif" font-size="10.00" fill="white">keras</text>
</g>
<!-- music_generation_lstm_models_model_io -->
<g id="node13" class="node">
<title>music_generation_lstm_models_model_io</title><style>.edge>path:hover{stroke-width:8}</style>
<ellipse fill="#439d67" stroke="black" cx="38.89" cy="-337.62" rx="38.89" ry="31.11"/>
<text xml:space="preserve" text-anchor="middle" x="38.89" y="-346.12" font-family="Helvetica,sans-Serif" font-size="10.00" fill="#ffffff">_lstm.</text>
<text xml:space="preserve" text-anchor="middle" x="38.89" y="-334.12" font-family="Helvetica,sans-Serif" font-size="10.00" fill="#ffffff">models.</text>
<text xml:space="preserve" text-anchor="middle" x="38.89" y="-322.12" font-family="Helvetica,sans-Serif" font-size="10.00" fill="#ffffff">model_io</text>
</g>
<!-- keras&#45;&gt;music_generation_lstm_models_model_io -->
<g id="edge1" class="edge">
<title>keras&#45;&gt;music_generation_lstm_models_model_io</title><style>.edge>path:hover{stroke-width:8}</style>
<path fill="none" stroke="black" d="M37.17,-611.55C36.18,-597.29 35.67,-576.66 38.89,-558.96"/>
<path fill="none" stroke="black" d="M38.89,-556.96C49.91,-496.32 46.93,-424.63 43.29,-380.39"/>
<polygon fill="blue" stroke="black" points="46.78,-380.11 42.42,-370.46 39.81,-380.72 46.78,-380.11"/>
</g>
<!-- music_generation_lstm_models_models -->
<g id="node14" class="node">
<title>music_generation_lstm_models_models</title><style>.edge>path:hover{stroke-width:8}</style>
<ellipse fill="#35a160" stroke="black" cx="102.89" cy="-472.85" rx="35.71" ry="31.11"/>
<text xml:space="preserve" text-anchor="middle" x="102.89" y="-481.35" font-family="Helvetica,sans-Serif" font-size="10.00" fill="#ffffff">_lstm.</text>
<text xml:space="preserve" text-anchor="middle" x="102.89" y="-469.35" font-family="Helvetica,sans-Serif" font-size="10.00" fill="#ffffff">models.</text>
<text xml:space="preserve" text-anchor="middle" x="102.89" y="-457.35" font-family="Helvetica,sans-Serif" font-size="10.00" fill="#ffffff">models</text>
</g>
<!-- keras&#45;&gt;music_generation_lstm_models_models -->
<g id="edge2" class="edge">
<title>keras&#45;&gt;music_generation_lstm_models_models</title><style>.edge>path:hover{stroke-width:8}</style>
<path fill="none" stroke="black" d="M38.89,-556.96C42.65,-536.29 56.02,-517.37 69.57,-502.82"/>
<polygon fill="blue" stroke="black" points="71.91,-505.44 76.44,-495.86 66.92,-500.52 71.91,-505.44"/>
</g>
<!-- music21 -->
<g id="node2" class="node">
<title>music21</title><style>.edge>path:hover{stroke-width:8}</style>
<polygon fill="blue" stroke="black" points="300.89,-719.96 297.89,-723.96 276.89,-723.96 273.89,-719.96 246.89,-719.96 246.89,-683.96 300.89,-683.96 300.89,-719.96"/>
<text xml:space="preserve" text-anchor="middle" x="273.89" y="-698.46" font-family="Helvetica,sans-Serif" font-size="10.00" fill="white">music21</text>
</g>
<!-- music_generation_lstm_midi_parser -->
<g id="node9" class="node">
<title>music_generation_lstm_midi_parser</title><style>.edge>path:hover{stroke-width:8}</style>
<ellipse fill="#38a865" stroke="black" cx="537.89" cy="-472.85" rx="30.41" ry="31.11"/>
<text xml:space="preserve" text-anchor="middle" x="537.89" y="-481.35" font-family="Helvetica,sans-Serif" font-size="10.00" fill="#ffffff">_lstm.</text>
<text xml:space="preserve" text-anchor="middle" x="537.89" y="-469.35" font-family="Helvetica,sans-Serif" font-size="10.00" fill="#ffffff">midi.</text>
<text xml:space="preserve" text-anchor="middle" x="537.89" y="-457.35" font-family="Helvetica,sans-Serif" font-size="10.00" fill="#ffffff">parser</text>
</g>
<!-- music21&#45;&gt;music_generation_lstm_midi_parser -->
<g id="edge3" class="edge">
<title>music21&#45;&gt;music_generation_lstm_midi_parser</title><style>.edge>path:hover{stroke-width:8}</style>
<path fill="none" stroke="black" d="M344.89,-628.96C355.08,-599.57 321.48,-579.45 344.89,-558.96"/>
</g>
<!-- music_generation_lstm_midi_writer -->
<g id="node10" class="node">
<title>music_generation_lstm_midi_writer</title><style>.edge>path:hover{stroke-width:8}</style>
<ellipse fill="#3ab069" stroke="black" cx="186.89" cy="-472.85" rx="30.41" ry="31.11"/>
<text xml:space="preserve" text-anchor="middle" x="186.89" y="-481.35" font-family="Helvetica,sans-Serif" font-size="10.00" fill="#000000">_lstm.</text>
<text xml:space="preserve" text-anchor="middle" x="186.89" y="-469.35" font-family="Helvetica,sans-Serif" font-size="10.00" fill="#000000">midi.</text>
<text xml:space="preserve" text-anchor="middle" x="186.89" y="-457.35" font-family="Helvetica,sans-Serif" font-size="10.00" fill="#000000">writer</text>
</g>
<!-- music21&#45;&gt;music_generation_lstm_midi_writer -->
<g id="edge4" class="edge">
<title>music21&#45;&gt;music_generation_lstm_midi_writer</title><style>.edge>path:hover{stroke-width:8}</style>
<path fill="none" stroke="black" d="M246.55,-686.8C231.96,-677.74 215.15,-664.56 205.89,-647.96 183.11,-607.1 180.84,-552.47 182.67,-515.37"/>
<polygon fill="blue" stroke="black" points="186.16,-515.7 183.29,-505.5 179.17,-515.26 186.16,-515.7"/>
</g>
<!-- music_generation_lstm_tokenization_tokenizer -->
<g id="node20" class="node">
<title>music_generation_lstm_tokenization_tokenizer</title><style>.edge>path:hover{stroke-width:8}</style>
<ellipse fill="#28a35a" stroke="black" cx="323.89" cy="-472.85" rx="50.56" ry="31.11"/>
<text xml:space="preserve" text-anchor="middle" x="323.89" y="-481.35" font-family="Helvetica,sans-Serif" font-size="10.00" fill="#ffffff">_lstm.</text>
<text xml:space="preserve" text-anchor="middle" x="323.89" y="-469.35" font-family="Helvetica,sans-Serif" font-size="10.00" fill="#ffffff">tokenization.</text>
<text xml:space="preserve" text-anchor="middle" x="323.89" y="-457.35" font-family="Helvetica,sans-Serif" font-size="10.00" fill="#ffffff">tokenizer</text>
</g>
<!-- music21&#45;&gt;music_generation_lstm_tokenization_tokenizer -->
<g id="edge5" class="edge">
<title>music21&#45;&gt;music_generation_lstm_tokenization_tokenizer</title><style>.edge>path:hover{stroke-width:8}</style>
<path fill="none" stroke="black" d="M301.32,-684.77C318.59,-672.58 338.75,-654.04 344.89,-630.96"/>
<path fill="none" stroke="black" d="M344.89,-628.96C351.16,-605.42 334.85,-600 330.89,-575.96 327.65,-556.31 325.91,-534.29 324.97,-515.74"/>
<polygon fill="blue" stroke="black" points="328.47,-515.76 324.54,-505.92 321.48,-516.06 328.47,-515.76"/>
</g>
<!-- music_generation_lstm_cli -->
<g id="node3" class="node">
<title>music_generation_lstm_cli</title><style>.edge>path:hover{stroke-width:8}</style>
<ellipse fill="#3db86e" stroke="black" cx="365.89" cy="-90" rx="31.72" ry="18"/>
<text xml:space="preserve" text-anchor="middle" x="365.89" y="-86.5" font-family="Helvetica,sans-Serif" font-size="10.00" fill="#000000">_lstm.cli</text>
</g>
<!-- music_generation_lstm_main -->
<g id="node6" class="node">
<title>music_generation_lstm_main</title><style>.edge>path:hover{stroke-width:8}</style>
<ellipse fill="#49ac71" stroke="black" cx="365.89" cy="-18" rx="38.49" ry="18"/>
<text xml:space="preserve" text-anchor="middle" x="365.89" y="-14.5" font-family="Helvetica,sans-Serif" font-size="10.00" fill="#000000">_lstm.main</text>
</g>
<!-- music_generation_lstm_cli&#45;&gt;music_generation_lstm_main -->
<g id="edge6" class="edge">
<title>music_generation_lstm_cli&#45;&gt;music_generation_lstm_main</title><style>.edge>path:hover{stroke-width:8}</style>
<path fill="none" stroke="black" d="M365.89,-71.7C365.89,-64.41 365.89,-55.73 365.89,-47.54"/>
<polygon fill="#3db86e" stroke="black" points="369.39,-47.62 365.89,-37.62 362.39,-47.62 369.39,-47.62"/>
</g>
<!-- music_generation_lstm_config -->
<g id="node4" class="node">
<title>music_generation_lstm_config</title><style>.edge>path:hover{stroke-width:8}</style>
<ellipse fill="#16f36f" stroke="black" cx="256.89" cy="-629.96" rx="41.64" ry="18"/>
<text xml:space="preserve" text-anchor="middle" x="256.89" y="-626.46" font-family="Helvetica,sans-Serif" font-size="10.00" fill="#000000">_lstm.config</text>
</g>
<!-- music_generation_lstm_config&#45;&gt;music_generation_lstm_midi_parser -->
<g id="edge7" class="edge">
<title>music_generation_lstm_config&#45;&gt;music_generation_lstm_midi_parser</title><style>.edge>path:hover{stroke-width:8}</style>
<path fill="none" stroke="black" d="M276.89,-613.91C295.02,-600.07 322.27,-578.76 344.89,-558.96"/>
<path fill="none" stroke="black" d="M344.89,-556.96C399.05,-509.57 434.37,-537.79 497.89,-503.96 500.37,-502.64 502.87,-501.17 505.33,-499.61"/>
<polygon fill="#16f36f" stroke="black" points="507.06,-502.67 513.34,-494.14 503.11,-496.89 507.06,-502.67"/>
</g>
<!-- music_generation_lstm_config&#45;&gt;music_generation_lstm_midi_writer -->
<g id="edge8" class="edge">
<title>music_generation_lstm_config&#45;&gt;music_generation_lstm_midi_writer</title><style>.edge>path:hover{stroke-width:8}</style>
<path fill="none" stroke="black" d="M252.69,-611.83C249.54,-597.74 245.65,-577.19 244.89,-558.96"/>
<path fill="none" stroke="black" d="M244.89,-556.96C244.02,-535.95 231.31,-516.43 218.02,-501.6"/>
<polygon fill="#16f36f" stroke="black" points="220.69,-499.34 211.25,-494.53 215.64,-504.18 220.69,-499.34"/>
</g>
<!-- music_generation_lstm_config&#45;&gt;music_generation_lstm_models_models -->
<g id="edge9" class="edge">
<title>music_generation_lstm_config&#45;&gt;music_generation_lstm_models_models</title><style>.edge>path:hover{stroke-width:8}</style>
<path fill="none" stroke="black" d="M240.99,-612.94C215.77,-587.54 166.14,-537.55 133.76,-504.94"/>
<polygon fill="#16f36f" stroke="black" points="136.52,-502.75 126.99,-498.12 131.55,-507.68 136.52,-502.75"/>
</g>
<!-- music_generation_lstm_processing_process -->
<g id="node17" class="node">
<title>music_generation_lstm_processing_process</title><style>.edge>path:hover{stroke-width:8}</style>
<ellipse fill="#38a865" stroke="black" cx="398.89" cy="-337.62" rx="46.85" ry="31.11"/>
<text xml:space="preserve" text-anchor="middle" x="398.89" y="-346.12" font-family="Helvetica,sans-Serif" font-size="10.00" fill="#ffffff">_lstm.</text>
<text xml:space="preserve" text-anchor="middle" x="398.89" y="-334.12" font-family="Helvetica,sans-Serif" font-size="10.00" fill="#ffffff">processing.</text>
<text xml:space="preserve" text-anchor="middle" x="398.89" y="-322.12" font-family="Helvetica,sans-Serif" font-size="10.00" fill="#ffffff">process</text>
</g>
<!-- music_generation_lstm_config&#45;&gt;music_generation_lstm_processing_process -->
<g id="edge10" class="edge">
<title>music_generation_lstm_config&#45;&gt;music_generation_lstm_processing_process</title><style>.edge>path:hover{stroke-width:8}</style>
<path fill="none" stroke="black" d="M244.89,-556.96C242.74,-505.1 228.37,-479.58 263.89,-441.74 312.59,-389.85 434.94,-475.28 419.89,-405.74"/>
<path fill="none" stroke="black" d="M419.89,-404.74C417.96,-396.33 415.46,-387.45 412.87,-379.03"/>
<polygon fill="#16f36f" stroke="black" points="416.28,-378.19 409.91,-369.73 409.61,-380.32 416.28,-378.19"/>
</g>
<!-- music_generation_lstm_config&#45;&gt;music_generation_lstm_tokenization_tokenizer -->
<g id="edge11" class="edge">
<title>music_generation_lstm_config&#45;&gt;music_generation_lstm_tokenization_tokenizer</title><style>.edge>path:hover{stroke-width:8}</style>
<path fill="none" stroke="black" d="M244.89,-556.96C243.93,-533.88 260.07,-514.65 278,-500.52"/>
<polygon fill="#16f36f" stroke="black" points="279.67,-503.64 285.66,-494.9 275.53,-498 279.67,-503.64"/>
</g>
<!-- music_generation_lstm_controller -->
<g id="node5" class="node">
<title>music_generation_lstm_controller</title><style>.edge>path:hover{stroke-width:8}</style>
<ellipse fill="#287a49" stroke="black" cx="365.89" cy="-166.63" rx="39.42" ry="22.63"/>
<text xml:space="preserve" text-anchor="middle" x="365.89" y="-169.13" font-family="Helvetica,sans-Serif" font-size="10.00" fill="#ffffff">_lstm.</text>
<text xml:space="preserve" text-anchor="middle" x="365.89" y="-157.13" font-family="Helvetica,sans-Serif" font-size="10.00" fill="#ffffff">controller</text>
</g>
<!-- music_generation_lstm_controller&#45;&gt;music_generation_lstm_cli -->
<g id="edge12" class="edge">
<title>music_generation_lstm_controller&#45;&gt;music_generation_lstm_cli</title><style>.edge>path:hover{stroke-width:8}</style>
<path fill="none" stroke="black" d="M365.89,-143.64C365.89,-136.1 365.89,-127.56 365.89,-119.57"/>
<polygon fill="#287a49" stroke="black" points="369.39,-119.61 365.89,-109.61 362.39,-119.61 369.39,-119.61"/>
</g>
<!-- music_generation_lstm_managers -->
<g id="node7" class="node">
<title>music_generation_lstm_managers</title><style>.edge>path:hover{stroke-width:8}</style>
<ellipse fill="#47c278" stroke="black" cx="227.89" cy="-247.88" rx="51.56" ry="18"/>
<text xml:space="preserve" text-anchor="middle" x="227.89" y="-244.38" font-family="Helvetica,sans-Serif" font-size="10.00" fill="#000000">_lstm.managers</text>
</g>
<!-- music_generation_lstm_managers&#45;&gt;music_generation_lstm_controller -->
<g id="edge13" class="edge">
<title>music_generation_lstm_managers&#45;&gt;music_generation_lstm_controller</title><style>.edge>path:hover{stroke-width:8}</style>
<path fill="none" stroke="black" d="M253.85,-231.98C275.03,-219.81 305.21,-202.48 328.92,-188.86"/>
<polygon fill="#47c278" stroke="black" points="330.39,-192.05 337.32,-184.03 326.91,-185.98 330.39,-192.05"/>
</g>
<!-- music_generation_lstm_midi -->
<g id="node8" class="node">
<title>music_generation_lstm_midi</title><style>.edge>path:hover{stroke-width:8}</style>
<ellipse fill="#47c278" stroke="black" cx="333.89" cy="-247.88" rx="36.68" ry="18"/>
<text xml:space="preserve" text-anchor="middle" x="333.89" y="-244.38" font-family="Helvetica,sans-Serif" font-size="10.00" fill="#000000">_lstm.midi</text>
</g>
<!-- music_generation_lstm_midi&#45;&gt;music_generation_lstm_controller -->
<g id="edge14" class="edge">
<title>music_generation_lstm_midi&#45;&gt;music_generation_lstm_controller</title><style>.edge>path:hover{stroke-width:8}</style>
<path fill="none" stroke="black" d="M340.68,-230.07C344.27,-221.17 348.81,-209.94 353.04,-199.46"/>
<polygon fill="#47c278" stroke="black" points="356.22,-200.93 356.72,-190.35 349.73,-198.31 356.22,-200.93"/>
</g>
<!-- music_generation_lstm_midi_parser&#45;&gt;music_generation_lstm_controller -->
<g id="edge15" class="edge">
<title>music_generation_lstm_midi_parser&#45;&gt;music_generation_lstm_controller</title><style>.edge>path:hover{stroke-width:8}</style>
<path fill="none" stroke="black" d="M538.75,-441.54C538.85,-430.28 538.68,-417.42 537.89,-405.74"/>
</g>
<!-- music_generation_lstm_midi_writer&#45;&gt;music_generation_lstm_controller -->
<g id="edge16" class="edge">
<title>music_generation_lstm_midi_writer&#45;&gt;music_generation_lstm_controller</title><style>.edge>path:hover{stroke-width:8}</style>
<path fill="none" stroke="black" d="M212.38,-455.1C219.82,-450.51 228.06,-445.71 235.89,-441.74 273.57,-422.61 307.59,-444.72 323.89,-405.74"/>
<path fill="none" stroke="black" d="M323.89,-404.74C341.04,-363.71 321.77,-345.64 342.89,-306.51 359.86,-275.08 405.74,-283.93 398.89,-248.88"/>
<path fill="none" stroke="black" d="M398.89,-246.88C395.27,-230.53 388.47,-213.27 381.98,-199.04"/>
<polygon fill="#3ab069" stroke="black" points="385.23,-197.72 377.78,-190.18 378.9,-200.72 385.23,-197.72"/>
</g>
<!-- music_generation_lstm_models -->
<g id="node11" class="node">
<title>music_generation_lstm_models</title><style>.edge>path:hover{stroke-width:8}</style>
<ellipse fill="#47c278" stroke="black" cx="471.89" cy="-247.88" rx="44.8" ry="18"/>
<text xml:space="preserve" text-anchor="middle" x="471.89" y="-244.38" font-family="Helvetica,sans-Serif" font-size="10.00" fill="#000000">_lstm.models</text>
</g>
<!-- music_generation_lstm_models&#45;&gt;music_generation_lstm_controller -->
<g id="edge17" class="edge">
<title>music_generation_lstm_models&#45;&gt;music_generation_lstm_controller</title><style>.edge>path:hover{stroke-width:8}</style>
<path fill="none" stroke="black" d="M451.45,-231.6C436.43,-220.37 415.7,-204.87 398.41,-191.94"/>
<polygon fill="#47c278" stroke="black" points="400.54,-189.16 390.43,-185.98 396.34,-194.77 400.54,-189.16"/>
</g>
<!-- music_generation_lstm_models_lazy_sequence_generator -->
<g id="node12" class="node">
<title>music_generation_lstm_models_lazy_sequence_generator</title><style>.edge>path:hover{stroke-width:8}</style>
<ellipse fill="#49ac71" stroke="black" cx="591.89" cy="-337.62" rx="89.8" ry="31.11"/>
<text xml:space="preserve" text-anchor="middle" x="591.89" y="-346.12" font-family="Helvetica,sans-Serif" font-size="10.00" fill="#000000">_lstm.</text>
<text xml:space="preserve" text-anchor="middle" x="591.89" y="-334.12" font-family="Helvetica,sans-Serif" font-size="10.00" fill="#000000">models.</text>
<text xml:space="preserve" text-anchor="middle" x="591.89" y="-322.12" font-family="Helvetica,sans-Serif" font-size="10.00" fill="#000000">lazy_sequence_generator</text>
</g>
<!-- music_generation_lstm_models_models&#45;&gt;music_generation_lstm_controller -->
<g id="edge18" class="edge">
<title>music_generation_lstm_models_models&#45;&gt;music_generation_lstm_controller</title><style>.edge>path:hover{stroke-width:8}</style>
<path fill="none" stroke="black" d="M101.77,-441.51C101.58,-389.91 108.92,-284.87 166.89,-225.25 205.53,-185.52 269.75,-172.74 314.76,-168.86"/>
<polygon fill="#35a160" stroke="black" points="314.82,-172.37 324.54,-168.15 314.31,-165.39 314.82,-172.37"/>
</g>
<!-- music_generation_lstm_models_train -->
<g id="node15" class="node">
<title>music_generation_lstm_models_train</title><style>.edge>path:hover{stroke-width:8}</style>
<ellipse fill="#4cb375" stroke="black" cx="735.89" cy="-337.62" rx="35.71" ry="31.11"/>
<text xml:space="preserve" text-anchor="middle" x="735.89" y="-346.12" font-family="Helvetica,sans-Serif" font-size="10.00" fill="#000000">_lstm.</text>
<text xml:space="preserve" text-anchor="middle" x="735.89" y="-334.12" font-family="Helvetica,sans-Serif" font-size="10.00" fill="#000000">models.</text>
<text xml:space="preserve" text-anchor="middle" x="735.89" y="-322.12" font-family="Helvetica,sans-Serif" font-size="10.00" fill="#000000">train</text>
</g>
<!-- music_generation_lstm_processing -->
<g id="node16" class="node">
<title>music_generation_lstm_processing</title><style>.edge>path:hover{stroke-width:8}</style>
<ellipse fill="#47c278" stroke="black" cx="579.89" cy="-247.88" rx="44.72" ry="22.63"/>
<text xml:space="preserve" text-anchor="middle" x="579.89" y="-250.38" font-family="Helvetica,sans-Serif" font-size="10.00" fill="#000000">_lstm.</text>
<text xml:space="preserve" text-anchor="middle" x="579.89" y="-238.38" font-family="Helvetica,sans-Serif" font-size="10.00" fill="#000000">processing</text>
</g>
<!-- music_generation_lstm_processing&#45;&gt;music_generation_lstm_controller -->
<g id="edge19" class="edge">
<title>music_generation_lstm_processing&#45;&gt;music_generation_lstm_controller</title><style>.edge>path:hover{stroke-width:8}</style>
<path fill="none" stroke="black" d="M545.68,-232.97C539.13,-230.37 532.31,-227.7 525.89,-225.25 486.89,-210.43 442.18,-194.4 409.96,-183.03"/>
<polygon fill="#47c278" stroke="black" points="411.13,-179.73 400.54,-179.71 408.81,-186.33 411.13,-179.73"/>
</g>
<!-- music_generation_lstm_processing_process&#45;&gt;music_generation_lstm_controller -->
<g id="edge20" class="edge">
<title>music_generation_lstm_processing_process&#45;&gt;music_generation_lstm_controller</title><style>.edge>path:hover{stroke-width:8}</style>
<path fill="none" stroke="black" d="M401.74,-306.3C402.63,-289.27 402.57,-267.72 398.89,-248.88"/>
</g>
<!-- music_generation_lstm_processing_processed_io -->
<g id="node18" class="node">
<title>music_generation_lstm_processing_processed_io</title><style>.edge>path:hover{stroke-width:8}</style>
<ellipse fill="#4cb375" stroke="black" cx="841.89" cy="-337.62" rx="52.15" ry="31.11"/>
<text xml:space="preserve" text-anchor="middle" x="841.89" y="-346.12" font-family="Helvetica,sans-Serif" font-size="10.00" fill="#000000">_lstm.</text>
<text xml:space="preserve" text-anchor="middle" x="841.89" y="-334.12" font-family="Helvetica,sans-Serif" font-size="10.00" fill="#000000">processing.</text>
<text xml:space="preserve" text-anchor="middle" x="841.89" y="-322.12" font-family="Helvetica,sans-Serif" font-size="10.00" fill="#000000">processed_io</text>
</g>
<!-- music_generation_lstm_tokenization -->
<g id="node19" class="node">
<title>music_generation_lstm_tokenization</title><style>.edge>path:hover{stroke-width:8}</style>
<ellipse fill="#3bce76" stroke="black" cx="440.89" cy="-472.85" rx="48.44" ry="22.63"/>
<text xml:space="preserve" text-anchor="middle" x="440.89" y="-475.35" font-family="Helvetica,sans-Serif" font-size="10.00" fill="#000000">_lstm.</text>
<text xml:space="preserve" text-anchor="middle" x="440.89" y="-463.35" font-family="Helvetica,sans-Serif" font-size="10.00" fill="#000000">tokenization</text>
</g>
<!-- music_generation_lstm_tokenization&#45;&gt;music_generation_lstm_controller -->
<g id="edge21" class="edge">
<title>music_generation_lstm_tokenization&#45;&gt;music_generation_lstm_controller</title><style>.edge>path:hover{stroke-width:8}</style>
<path fill="none" stroke="black" d="M471.01,-454.83C499.7,-438.11 538.45,-413.94 537.89,-405.74"/>
<path fill="none" stroke="black" d="M537.89,-404.74C536.15,-379.18 509.82,-387.95 492.89,-368.74 471.47,-344.42 475.11,-331.84 454.89,-306.51 432.61,-278.6 405.74,-283.93 398.89,-248.88"/>
</g>
<!-- music_generation_lstm_tokenization&#45;&gt;music_generation_lstm_processing_process -->
<g id="edge22" class="edge">
<title>music_generation_lstm_tokenization&#45;&gt;music_generation_lstm_processing_process</title><style>.edge>path:hover{stroke-width:8}</style>
<path fill="none" stroke="black" d="M432.84,-450.09C428.4,-437.33 423.15,-420.8 419.89,-405.74"/>
</g>
<!-- music_generation_lstm_tokenization_tokenizer&#45;&gt;music_generation_lstm_controller -->
<g id="edge23" class="edge">
<title>music_generation_lstm_tokenization_tokenizer&#45;&gt;music_generation_lstm_controller</title><style>.edge>path:hover{stroke-width:8}</style>
<path fill="none" stroke="black" d="M319.04,-441.58C318.41,-429.97 319.24,-416.85 323.89,-405.74"/>
</g>
<!-- music_generation_lstm_tokenization_tokenizer&#45;&gt;music_generation_lstm_processing_process -->
<g id="edge24" class="edge">
<title>music_generation_lstm_tokenization_tokenizer&#45;&gt;music_generation_lstm_processing_process</title><style>.edge>path:hover{stroke-width:8}</style>
<path fill="none" stroke="black" d="M360.46,-451.04C388.26,-434.58 421.5,-413.15 419.89,-405.74"/>
</g>
<!-- numpy -->
<g id="node21" class="node">
<title>numpy</title><style>.edge>path:hover{stroke-width:8}</style>
<polygon fill="#196be6" stroke="black" points="730.89,-575.96 727.89,-579.96 706.89,-579.96 703.89,-575.96 676.89,-575.96 676.89,-539.96 730.89,-539.96 730.89,-575.96"/>
<text xml:space="preserve" text-anchor="middle" x="703.89" y="-554.46" font-family="Helvetica,sans-Serif" font-size="10.00" fill="#ffffff">numpy</text>
</g>
<!-- numpy&#45;&gt;music_generation_lstm_models_lazy_sequence_generator -->
<g id="edge25" class="edge">
<title>numpy&#45;&gt;music_generation_lstm_models_lazy_sequence_generator</title><style>.edge>path:hover{stroke-width:8}</style>
<path fill="none" stroke="black" d="M703.89,-471.85C687.13,-443.83 731.71,-438.11 735.89,-405.74"/>
<path fill="none" stroke="black" d="M735.89,-404.74C737.03,-395.91 700.26,-379.13 663.6,-364.68"/>
<polygon fill="#196be6" stroke="black" points="665.29,-361.58 654.7,-361.22 662.75,-368.11 665.29,-361.58"/>
</g>
<!-- numpy&#45;&gt;music_generation_lstm_models_train -->
<g id="edge26" class="edge">
<title>numpy&#45;&gt;music_generation_lstm_models_train</title><style>.edge>path:hover{stroke-width:8}</style>
<path fill="none" stroke="black" d="M735.89,-404.74C736.9,-396.93 737.37,-388.57 737.51,-380.51"/>
<polygon fill="#196be6" stroke="black" points="741.01,-380.52 737.52,-370.52 734.01,-380.52 741.01,-380.52"/>
</g>
<!-- numpy&#45;&gt;music_generation_lstm_processing_process -->
<g id="edge27" class="edge">
<title>numpy&#45;&gt;music_generation_lstm_processing_process</title><style>.edge>path:hover{stroke-width:8}</style>
<path fill="none" stroke="black" d="M708.75,-539.69C712.7,-521.86 715.89,-493.91 703.89,-473.85"/>
<path fill="none" stroke="black" d="M703.89,-471.85C674.11,-422.07 633.38,-454.91 576.89,-441.74 542.03,-433.61 427.46,-440.72 419.89,-405.74"/>
</g>
<!-- numpy&#45;&gt;music_generation_lstm_processing_processed_io -->
<g id="edge28" class="edge">
<title>numpy&#45;&gt;music_generation_lstm_processing_processed_io</title><style>.edge>path:hover{stroke-width:8}</style>
<path fill="none" stroke="black" d="M735.89,-404.74C736.82,-397.53 765.84,-379.74 793.27,-364.43"/>
<polygon fill="#196be6" stroke="black" points="794.86,-367.55 801.93,-359.66 791.48,-361.42 794.86,-367.55"/>
</g>
<!-- tensorflow -->
<g id="node22" class="node">
<title>tensorflow</title><style>.edge>path:hover{stroke-width:8}</style>
<polygon fill="#a640c0" stroke="black" points="626.39,-575.96 623.39,-579.96 602.39,-579.96 599.39,-575.96 565.39,-575.96 565.39,-539.96 626.39,-539.96 626.39,-575.96"/>
<text xml:space="preserve" text-anchor="middle" x="595.89" y="-554.46" font-family="Helvetica,sans-Serif" font-size="10.00" fill="#ffffff">tensorflow</text>
</g>
<!-- tensorflow&#45;&gt;music_generation_lstm_models_lazy_sequence_generator -->
<g id="edge29" class="edge">
<title>tensorflow&#45;&gt;music_generation_lstm_models_lazy_sequence_generator</title><style>.edge>path:hover{stroke-width:8}</style>
<path fill="none" stroke="black" d="M595.57,-539.46C594.94,-505.15 593.53,-428.21 592.65,-380.15"/>
<polygon fill="#a640c0" stroke="black" points="596.16,-380.33 592.47,-370.4 589.16,-380.46 596.16,-380.33"/>
</g>
</g>
</svg>
