<?xml version="1.0" encoding="UTF-8" standalone="no"?>
<!DOCTYPE svg PUBLIC "-//W3C//DTD SVG 1.1//EN"
 "http://www.w3.org/Graphics/SVG/1.1/DTD/svg11.dtd">
<!-- Generated by graphviz version 13.0.1 (0)
 -->
<!-- Title: G Pages: 1 -->
<svg width="777pt" height="754pt"
 viewBox="0.00 0.00 777.00 754.00" xmlns="http://www.w3.org/2000/svg" xmlns:xlink="http://www.w3.org/1999/xlink">
<g id="graph0" class="graph" transform="scale(1 1) rotate(0) translate(4 750.19)">
<title>G</title><style>.edge>path:hover{stroke-width:8}</style>
<polygon fill="white" stroke="none" points="-4,4 -4,-750.19 772.63,-750.19 772.63,4 -4,4"/>
<!-- keras -->
<g id="node1" class="node">
<title>keras</title><style>.edge>path:hover{stroke-width:8}</style>
<polygon fill="blue" stroke="black" points="148.41,-674.19 145.41,-678.19 124.41,-678.19 121.41,-674.19 94.41,-674.19 94.41,-638.19 148.41,-638.19 148.41,-674.19"/>
<text xml:space="preserve" text-anchor="middle" x="121.41" y="-652.69" font-family="Helvetica,sans-Serif" font-size="10.00" fill="white">keras</text>
</g>
<!-- music_generation_lstm_managers_model_management -->
<g id="node9" class="node">
<title>music_generation_lstm_managers_model_management</title><style>.edge>path:hover{stroke-width:8}</style>
<ellipse fill="#2e8a8a" stroke="black" cx="219.41" cy="-337.62" rx="73.36" ry="31.11"/>
<text xml:space="preserve" text-anchor="middle" x="219.41" y="-346.12" font-family="Helvetica,sans-Serif" font-size="10.00" fill="#ffffff">lstm.</text>
<text xml:space="preserve" text-anchor="middle" x="219.41" y="-334.12" font-family="Helvetica,sans-Serif" font-size="10.00" fill="#ffffff">managers.</text>
<text xml:space="preserve" text-anchor="middle" x="219.41" y="-322.12" font-family="Helvetica,sans-Serif" font-size="10.00" fill="#ffffff">model_management</text>
</g>
<!-- keras&#45;&gt;music_generation_lstm_managers_model_management -->
<g id="edge1" class="edge">
<title>keras&#45;&gt;music_generation_lstm_managers_model_management</title><style>.edge>path:hover{stroke-width:8}</style>
<path fill="none" stroke="black" d="M133.96,-637.82C149.64,-615.27 176.13,-574.15 190.41,-535.07"/>
<path fill="none" stroke="black" d="M190.41,-533.07C196.76,-480.14 206.16,-419.4 212.52,-380.09"/>
<polygon fill="blue" stroke="black" points="215.95,-380.79 214.11,-370.36 209.04,-379.66 215.95,-380.79"/>
</g>
<!-- music_generation_lstm_models_models -->
<g id="node14" class="node">
<title>music_generation_lstm_models_models</title><style>.edge>path:hover{stroke-width:8}</style>
<ellipse fill="#20b6b6" stroke="black" cx="254.41" cy="-534.07" rx="35.71" ry="31.11"/>
<text xml:space="preserve" text-anchor="middle" x="254.41" y="-542.57" font-family="Helvetica,sans-Serif" font-size="10.00" fill="#000000">lstm.</text>
<text xml:space="preserve" text-anchor="middle" x="254.41" y="-530.57" font-family="Helvetica,sans-Serif" font-size="10.00" fill="#000000">models.</text>
<text xml:space="preserve" text-anchor="middle" x="254.41" y="-518.57" font-family="Helvetica,sans-Serif" font-size="10.00" fill="#000000">models</text>
</g>
<!-- keras&#45;&gt;music_generation_lstm_models_models -->
<g id="edge2" class="edge">
<title>keras&#45;&gt;music_generation_lstm_models_models</title><style>.edge>path:hover{stroke-width:8}</style>
<path fill="none" stroke="black" d="M140.74,-637.72C161.98,-618.55 196.42,-587.44 221.83,-564.49"/>
<polygon fill="blue" stroke="black" points="223.88,-567.36 228.95,-558.06 219.18,-562.17 223.88,-567.36"/>
</g>
<!-- music21 -->
<g id="node2" class="node">
<title>music21</title><style>.edge>path:hover{stroke-width:8}</style>
<polygon fill="blue" stroke="black" points="325.41,-746.19 322.41,-750.19 301.41,-750.19 298.41,-746.19 271.41,-746.19 271.41,-710.19 325.41,-710.19 325.41,-746.19"/>
<text xml:space="preserve" text-anchor="middle" x="298.41" y="-724.69" font-family="Helvetica,sans-Serif" font-size="10.00" fill="white">music21</text>
</g>
<!-- music_generation_lstm_midi_parser -->
<g id="node11" class="node">
<title>music_generation_lstm_midi_parser</title><style>.edge>path:hover{stroke-width:8}</style>
<ellipse fill="#38a8a8" stroke="black" cx="30.41" cy="-534.07" rx="30.41" ry="31.11"/>
<text xml:space="preserve" text-anchor="middle" x="30.41" y="-542.57" font-family="Helvetica,sans-Serif" font-size="10.00" fill="#000000">lstm.</text>
<text xml:space="preserve" text-anchor="middle" x="30.41" y="-530.57" font-family="Helvetica,sans-Serif" font-size="10.00" fill="#000000">midi.</text>
<text xml:space="preserve" text-anchor="middle" x="30.41" y="-518.57" font-family="Helvetica,sans-Serif" font-size="10.00" fill="#000000">parser</text>
</g>
<!-- music21&#45;&gt;music_generation_lstm_midi_parser -->
<g id="edge3" class="edge">
<title>music21&#45;&gt;music_generation_lstm_midi_parser</title><style>.edge>path:hover{stroke-width:8}</style>
<path fill="none" stroke="black" d="M270.94,-727.93C226.54,-727.66 138.59,-720.75 85.41,-674.19 56.86,-649.2 42.99,-607.44 36.33,-576.18"/>
<polygon fill="blue" stroke="black" points="39.83,-575.82 34.48,-566.67 32.96,-577.16 39.83,-575.82"/>
</g>
<!-- music_generation_lstm_midi_writer -->
<g id="node12" class="node">
<title>music_generation_lstm_midi_writer</title><style>.edge>path:hover{stroke-width:8}</style>
<ellipse fill="#3ab0b0" stroke="black" cx="336.41" cy="-534.07" rx="28.28" ry="31.11"/>
<text xml:space="preserve" text-anchor="middle" x="336.41" y="-542.57" font-family="Helvetica,sans-Serif" font-size="10.00" fill="#000000">lstm.</text>
<text xml:space="preserve" text-anchor="middle" x="336.41" y="-530.57" font-family="Helvetica,sans-Serif" font-size="10.00" fill="#000000">midi.</text>
<text xml:space="preserve" text-anchor="middle" x="336.41" y="-518.57" font-family="Helvetica,sans-Serif" font-size="10.00" fill="#000000">writer</text>
</g>
<!-- music21&#45;&gt;music_generation_lstm_midi_writer -->
<g id="edge4" class="edge">
<title>music21&#45;&gt;music_generation_lstm_midi_writer</title><style>.edge>path:hover{stroke-width:8}</style>
<path fill="none" stroke="black" d="M301.84,-709.8C307.79,-679.74 320.14,-617.31 328.35,-575.8"/>
<polygon fill="blue" stroke="black" points="331.75,-576.67 330.25,-566.18 324.88,-575.31 331.75,-576.67"/>
</g>
<!-- music_generation_lstm_tokenization_tokenizer -->
<g id="node19" class="node">
<title>music_generation_lstm_tokenization_tokenizer</title><style>.edge>path:hover{stroke-width:8}</style>
<ellipse fill="#1eaeae" stroke="black" cx="509.41" cy="-534.07" rx="50.56" ry="31.11"/>
<text xml:space="preserve" text-anchor="middle" x="509.41" y="-542.57" font-family="Helvetica,sans-Serif" font-size="10.00" fill="#000000">lstm.</text>
<text xml:space="preserve" text-anchor="middle" x="509.41" y="-530.57" font-family="Helvetica,sans-Serif" font-size="10.00" fill="#000000">tokenization.</text>
<text xml:space="preserve" text-anchor="middle" x="509.41" y="-518.57" font-family="Helvetica,sans-Serif" font-size="10.00" fill="#000000">tokenizer</text>
</g>
<!-- music21&#45;&gt;music_generation_lstm_tokenization_tokenizer -->
<g id="edge5" class="edge">
<title>music21&#45;&gt;music_generation_lstm_tokenization_tokenizer</title><style>.edge>path:hover{stroke-width:8}</style>
<path fill="none" stroke="black" d="M325.75,-718.86C350.14,-710.45 385.84,-695.63 411.41,-674.19 444.66,-646.3 472.02,-604.61 489.3,-574.15"/>
<polygon fill="blue" stroke="black" points="492.24,-576.05 494.03,-565.6 486.12,-572.65 492.24,-576.05"/>
</g>
<!-- music_generation_lstm_cli -->
<g id="node3" class="node">
<title>music_generation_lstm_cli</title><style>.edge>path:hover{stroke-width:8}</style>
<ellipse fill="#3db8b8" stroke="black" cx="351.41" cy="-90" rx="28.56" ry="18"/>
<text xml:space="preserve" text-anchor="middle" x="351.41" y="-86.5" font-family="Helvetica,sans-Serif" font-size="10.00" fill="#000000">lstm.cli</text>
</g>
<!-- music_generation_lstm_main -->
<g id="node6" class="node">
<title>music_generation_lstm_main</title><style>.edge>path:hover{stroke-width:8}</style>
<ellipse fill="#49acac" stroke="black" cx="351.41" cy="-18" rx="35.33" ry="18"/>
<text xml:space="preserve" text-anchor="middle" x="351.41" y="-14.5" font-family="Helvetica,sans-Serif" font-size="10.00" fill="#000000">lstm.main</text>
</g>
<!-- music_generation_lstm_cli&#45;&gt;music_generation_lstm_main -->
<g id="edge6" class="edge">
<title>music_generation_lstm_cli&#45;&gt;music_generation_lstm_main</title><style>.edge>path:hover{stroke-width:8}</style>
<path fill="none" stroke="black" d="M351.41,-71.7C351.41,-64.41 351.41,-55.73 351.41,-47.54"/>
<polygon fill="#3db8b8" stroke="black" points="354.91,-47.62 351.41,-37.62 347.91,-47.62 354.91,-47.62"/>
</g>
<!-- music_generation_lstm_config -->
<g id="node4" class="node">
<title>music_generation_lstm_config</title><style>.edge>path:hover{stroke-width:8}</style>
<ellipse fill="#10f9f9" stroke="black" cx="364.41" cy="-656.19" rx="38.49" ry="18"/>
<text xml:space="preserve" text-anchor="middle" x="364.41" y="-652.69" font-family="Helvetica,sans-Serif" font-size="10.00" fill="#000000">lstm.config</text>
</g>
<!-- music_generation_lstm_managers_dataset_management -->
<g id="node8" class="node">
<title>music_generation_lstm_managers_dataset_management</title><style>.edge>path:hover{stroke-width:8}</style>
<ellipse fill="#38a8a8" stroke="black" cx="537.41" cy="-337.62" rx="77.6" ry="31.11"/>
<text xml:space="preserve" text-anchor="middle" x="537.41" y="-346.12" font-family="Helvetica,sans-Serif" font-size="10.00" fill="#000000">lstm.</text>
<text xml:space="preserve" text-anchor="middle" x="537.41" y="-334.12" font-family="Helvetica,sans-Serif" font-size="10.00" fill="#000000">managers.</text>
<text xml:space="preserve" text-anchor="middle" x="537.41" y="-322.12" font-family="Helvetica,sans-Serif" font-size="10.00" fill="#000000">dataset_management</text>
</g>
<!-- music_generation_lstm_config&#45;&gt;music_generation_lstm_managers_dataset_management -->
<g id="edge7" class="edge">
<title>music_generation_lstm_config&#45;&gt;music_generation_lstm_managers_dataset_management</title><style>.edge>path:hover{stroke-width:8}</style>
<path fill="none" stroke="black" d="M400.99,-650.02C447.95,-641.33 528.25,-619.1 569.41,-565.19 604.39,-519.35 591.19,-494.44 588.41,-436.85"/>
</g>
<!-- music_generation_lstm_config&#45;&gt;music_generation_lstm_managers_model_management -->
<g id="edge8" class="edge">
<title>music_generation_lstm_config&#45;&gt;music_generation_lstm_managers_model_management</title><style>.edge>path:hover{stroke-width:8}</style>
<path fill="none" stroke="black" d="M329.63,-648.2C275.29,-635.16 177.66,-602.15 190.41,-535.07"/>
</g>
<!-- music_generation_lstm_config&#45;&gt;music_generation_lstm_midi_parser -->
<g id="edge9" class="edge">
<title>music_generation_lstm_config&#45;&gt;music_generation_lstm_midi_parser</title><style>.edge>path:hover{stroke-width:8}</style>
<path fill="none" stroke="black" d="M328.57,-649.03C271.19,-638.16 156.33,-612.13 69.41,-565.19 67.2,-564 65,-562.69 62.81,-561.3"/>
<polygon fill="#10f9f9" stroke="black" points="64.95,-558.52 54.73,-555.71 60.96,-564.27 64.95,-558.52"/>
</g>
<!-- music_generation_lstm_config&#45;&gt;music_generation_lstm_midi_writer -->
<g id="edge10" class="edge">
<title>music_generation_lstm_config&#45;&gt;music_generation_lstm_midi_writer</title><style>.edge>path:hover{stroke-width:8}</style>
<path fill="none" stroke="black" d="M392.41,-601.19C394.13,-583.75 382.69,-568.49 369.71,-557.04"/>
<polygon fill="#10f9f9" stroke="black" points="372.24,-554.59 362.26,-551.03 367.85,-560.03 372.24,-554.59"/>
</g>
<!-- music_generation_lstm_config&#45;&gt;music_generation_lstm_models_models -->
<g id="edge11" class="edge">
<title>music_generation_lstm_config&#45;&gt;music_generation_lstm_models_models</title><style>.edge>path:hover{stroke-width:8}</style>
<path fill="none" stroke="black" d="M377.11,-639.09C383.87,-629.11 391.07,-615.65 392.41,-602.19"/>
<path fill="none" stroke="black" d="M392.41,-601.19C396.77,-557.08 338.73,-585.63 299.41,-565.19 296.68,-563.77 293.93,-562.23 291.18,-560.61"/>
<polygon fill="#10f9f9" stroke="black" points="293.05,-557.65 282.71,-555.34 289.35,-563.59 293.05,-557.65"/>
</g>
<!-- music_generation_lstm_models_train -->
<g id="node15" class="node">
<title>music_generation_lstm_models_train</title><style>.edge>path:hover{stroke-width:8}</style>
<ellipse fill="#439d9d" stroke="black" cx="330.41" cy="-435.85" rx="35.71" ry="31.11"/>
<text xml:space="preserve" text-anchor="middle" x="330.41" y="-444.35" font-family="Helvetica,sans-Serif" font-size="10.00" fill="#000000">lstm.</text>
<text xml:space="preserve" text-anchor="middle" x="330.41" y="-432.35" font-family="Helvetica,sans-Serif" font-size="10.00" fill="#000000">models.</text>
<text xml:space="preserve" text-anchor="middle" x="330.41" y="-420.35" font-family="Helvetica,sans-Serif" font-size="10.00" fill="#000000">train</text>
</g>
<!-- music_generation_lstm_config&#45;&gt;music_generation_lstm_models_train -->
<g id="edge12" class="edge">
<title>music_generation_lstm_config&#45;&gt;music_generation_lstm_models_train</title><style>.edge>path:hover{stroke-width:8}</style>
<path fill="none" stroke="black" d="M392.41,-601.19C395.3,-571.95 396.74,-564.13 392.41,-535.07"/>
<path fill="none" stroke="black" d="M392.41,-533.07C388.83,-509.14 374.63,-486.2 360.72,-468.73"/>
<polygon fill="#10f9f9" stroke="black" points="363.59,-466.71 354.5,-461.27 358.22,-471.19 363.59,-466.71"/>
</g>
<!-- music_generation_lstm_processing_process -->
<g id="node17" class="node">
<title>music_generation_lstm_processing_process</title><style>.edge>path:hover{stroke-width:8}</style>
<ellipse fill="#38a8a8" stroke="black" cx="395.41" cy="-337.62" rx="46.85" ry="31.11"/>
<text xml:space="preserve" text-anchor="middle" x="395.41" y="-346.12" font-family="Helvetica,sans-Serif" font-size="10.00" fill="#000000">lstm.</text>
<text xml:space="preserve" text-anchor="middle" x="395.41" y="-334.12" font-family="Helvetica,sans-Serif" font-size="10.00" fill="#000000">processing.</text>
<text xml:space="preserve" text-anchor="middle" x="395.41" y="-322.12" font-family="Helvetica,sans-Serif" font-size="10.00" fill="#000000">process</text>
</g>
<!-- music_generation_lstm_config&#45;&gt;music_generation_lstm_processing_process -->
<g id="edge13" class="edge">
<title>music_generation_lstm_config&#45;&gt;music_generation_lstm_processing_process</title><style>.edge>path:hover{stroke-width:8}</style>
<path fill="none" stroke="black" d="M392.41,-533.07C384.62,-480.91 387.45,-420 390.84,-380.45"/>
<polygon fill="#10f9f9" stroke="black" points="394.31,-380.92 391.74,-370.65 387.34,-380.29 394.31,-380.92"/>
</g>
<!-- music_generation_lstm_config&#45;&gt;music_generation_lstm_tokenization_tokenizer -->
<g id="edge14" class="edge">
<title>music_generation_lstm_config&#45;&gt;music_generation_lstm_tokenization_tokenizer</title><style>.edge>path:hover{stroke-width:8}</style>
<path fill="none" stroke="black" d="M392.41,-601.19C395.23,-572.59 422.42,-556.21 449.87,-546.91"/>
<polygon fill="#10f9f9" stroke="black" points="450.78,-550.29 459.31,-544.01 448.73,-543.6 450.78,-550.29"/>
</g>
<!-- music_generation_lstm_controller -->
<g id="node5" class="node">
<title>music_generation_lstm_controller</title><style>.edge>path:hover{stroke-width:8}</style>
<ellipse fill="#267373" stroke="black" cx="351.41" cy="-166.63" rx="39.42" ry="22.63"/>
<text xml:space="preserve" text-anchor="middle" x="351.41" y="-169.13" font-family="Helvetica,sans-Serif" font-size="10.00" fill="#ffffff">lstm.</text>
<text xml:space="preserve" text-anchor="middle" x="351.41" y="-157.13" font-family="Helvetica,sans-Serif" font-size="10.00" fill="#ffffff">controller</text>
</g>
<!-- music_generation_lstm_controller&#45;&gt;music_generation_lstm_cli -->
<g id="edge15" class="edge">
<title>music_generation_lstm_controller&#45;&gt;music_generation_lstm_cli</title><style>.edge>path:hover{stroke-width:8}</style>
<path fill="none" stroke="black" d="M351.41,-143.64C351.41,-136.1 351.41,-127.56 351.41,-119.57"/>
<polygon fill="#267373" stroke="black" points="354.91,-119.61 351.41,-109.61 347.91,-119.61 354.91,-119.61"/>
</g>
<!-- music_generation_lstm_managers -->
<g id="node7" class="node">
<title>music_generation_lstm_managers</title><style>.edge>path:hover{stroke-width:8}</style>
<ellipse fill="#47c2c2" stroke="black" cx="244.41" cy="-247.88" rx="48.41" ry="18"/>
<text xml:space="preserve" text-anchor="middle" x="244.41" y="-244.38" font-family="Helvetica,sans-Serif" font-size="10.00" fill="#000000">lstm.managers</text>
</g>
<!-- music_generation_lstm_managers&#45;&gt;music_generation_lstm_controller -->
<g id="edge16" class="edge">
<title>music_generation_lstm_managers&#45;&gt;music_generation_lstm_controller</title><style>.edge>path:hover{stroke-width:8}</style>
<path fill="none" stroke="black" d="M265.55,-231.22C280.65,-220.03 301.28,-204.76 318.52,-191.98"/>
<polygon fill="#47c2c2" stroke="black" points="320.53,-194.85 326.49,-186.09 316.37,-189.22 320.53,-194.85"/>
</g>
<!-- music_generation_lstm_managers_dataset_management&#45;&gt;music_generation_lstm_controller -->
<g id="edge17" class="edge">
<title>music_generation_lstm_managers_dataset_management&#45;&gt;music_generation_lstm_controller</title><style>.edge>path:hover{stroke-width:8}</style>
<path fill="none" stroke="black" d="M480.11,-316.33C470.54,-313.01 460.7,-309.63 451.41,-306.51 391.11,-286.27 324.36,-312.37 320.41,-248.88"/>
</g>
<!-- music_generation_lstm_managers_model_management&#45;&gt;music_generation_lstm_controller -->
<g id="edge18" class="edge">
<title>music_generation_lstm_managers_model_management&#45;&gt;music_generation_lstm_controller</title><style>.edge>path:hover{stroke-width:8}</style>
<path fill="none" stroke="black" d="M270.99,-315.18C296.81,-300.66 322.26,-278.67 320.41,-248.88"/>
<path fill="none" stroke="black" d="M320.41,-246.88C319.36,-230.03 325.42,-212.43 332.45,-198.11"/>
<polygon fill="#2e8a8a" stroke="black" points="335.35,-200.13 336.95,-189.66 329.17,-196.84 335.35,-200.13"/>
</g>
<!-- music_generation_lstm_midi -->
<g id="node10" class="node">
<title>music_generation_lstm_midi</title><style>.edge>path:hover{stroke-width:8}</style>
<ellipse fill="#47c2c2" stroke="black" cx="382.41" cy="-247.88" rx="33.52" ry="18"/>
<text xml:space="preserve" text-anchor="middle" x="382.41" y="-244.38" font-family="Helvetica,sans-Serif" font-size="10.00" fill="#000000">lstm.midi</text>
</g>
<!-- music_generation_lstm_midi&#45;&gt;music_generation_lstm_controller -->
<g id="edge19" class="edge">
<title>music_generation_lstm_midi&#45;&gt;music_generation_lstm_controller</title><style>.edge>path:hover{stroke-width:8}</style>
<path fill="none" stroke="black" d="M375.83,-230.07C372.35,-221.17 367.95,-209.94 363.86,-199.46"/>
<polygon fill="#47c2c2" stroke="black" points="367.2,-198.39 360.29,-190.35 360.68,-200.94 367.2,-198.39"/>
</g>
<!-- music_generation_lstm_midi_parser&#45;&gt;music_generation_lstm_controller -->
<g id="edge20" class="edge">
<title>music_generation_lstm_midi_parser&#45;&gt;music_generation_lstm_controller</title><style>.edge>path:hover{stroke-width:8}</style>
<path fill="none" stroke="black" d="M47.98,-508.5C71.8,-473.03 112.1,-404.46 118.41,-338.62"/>
<path fill="none" stroke="black" d="M118.41,-336.62C122.92,-278.57 142.02,-261.73 187.41,-225.25 220.73,-198.47 267.4,-183.68 302.43,-175.82"/>
<polygon fill="#38a8a8" stroke="black" points="302.83,-179.31 311.88,-173.81 301.38,-172.46 302.83,-179.31"/>
</g>
<!-- music_generation_lstm_midi_writer&#45;&gt;music_generation_lstm_controller -->
<g id="edge21" class="edge">
<title>music_generation_lstm_midi_writer&#45;&gt;music_generation_lstm_controller</title><style>.edge>path:hover{stroke-width:8}</style>
<path fill="none" stroke="black" d="M315.13,-512.9C303.94,-500.79 291.35,-484.39 285.41,-466.96 276.48,-440.78 278.74,-431.58 285.41,-404.74 293.42,-372.47 318.5,-371.81 320.41,-338.62"/>
</g>
<!-- music_generation_lstm_models -->
<g id="node13" class="node">
<title>music_generation_lstm_models</title><style>.edge>path:hover{stroke-width:8}</style>
<ellipse fill="#2fdbdb" stroke="black" cx="120.41" cy="-534.07" rx="41.64" ry="18"/>
<text xml:space="preserve" text-anchor="middle" x="120.41" y="-530.57" font-family="Helvetica,sans-Serif" font-size="10.00" fill="#000000">lstm.models</text>
</g>
<!-- music_generation_lstm_models&#45;&gt;music_generation_lstm_controller -->
<g id="edge22" class="edge">
<title>music_generation_lstm_models&#45;&gt;music_generation_lstm_controller</title><style>.edge>path:hover{stroke-width:8}</style>
<path fill="none" stroke="black" d="M117.52,-515.78C114.85,-496.31 112.16,-463.87 118.41,-436.85"/>
<path fill="none" stroke="black" d="M118.41,-434.85C128.04,-393.18 114.33,-381.19 118.41,-338.62"/>
</g>
<!-- music_generation_lstm_models&#45;&gt;music_generation_lstm_managers_model_management -->
<g id="edge23" class="edge">
<title>music_generation_lstm_models&#45;&gt;music_generation_lstm_managers_model_management</title><style>.edge>path:hover{stroke-width:8}</style>
<path fill="none" stroke="black" d="M118.41,-434.85C124.66,-407.8 145.56,-385.68 166.74,-369.5"/>
<polygon fill="#2fdbdb" stroke="black" points="168.53,-372.53 174.57,-363.82 164.42,-366.86 168.53,-372.53"/>
</g>
<!-- music_generation_lstm_models_models&#45;&gt;music_generation_lstm_controller -->
<g id="edge24" class="edge">
<title>music_generation_lstm_models_models&#45;&gt;music_generation_lstm_controller</title><style>.edge>path:hover{stroke-width:8}</style>
<path fill="none" stroke="black" d="M228.41,-434.85C232.57,-375.83 318.61,-397.76 320.41,-338.62"/>
<path fill="none" stroke="black" d="M320.41,-336.62C321.59,-297.64 322.83,-287.8 320.41,-248.88"/>
</g>
<!-- music_generation_lstm_models_models&#45;&gt;music_generation_lstm_managers_model_management -->
<g id="edge25" class="edge">
<title>music_generation_lstm_models_models&#45;&gt;music_generation_lstm_managers_model_management</title><style>.edge>path:hover{stroke-width:8}</style>
<path fill="none" stroke="black" d="M241.53,-504.94C234.19,-486.01 226.75,-460.32 228.41,-436.85"/>
<path fill="none" stroke="black" d="M228.41,-434.85C229.67,-416.9 228.3,-397.1 226.27,-380.15"/>
<polygon fill="#20b6b6" stroke="black" points="229.77,-379.89 224.99,-370.43 222.83,-380.8 229.77,-379.89"/>
</g>
<!-- music_generation_lstm_models_models&#45;&gt;music_generation_lstm_models_train -->
<g id="edge26" class="edge">
<title>music_generation_lstm_models_models&#45;&gt;music_generation_lstm_models_train</title><style>.edge>path:hover{stroke-width:8}</style>
<path fill="none" stroke="black" d="M274.37,-507.79C283.28,-496.52 293.9,-483.07 303.48,-470.93"/>
<polygon fill="#20b6b6" stroke="black" points="306.18,-473.17 309.63,-463.15 300.69,-468.83 306.18,-473.17"/>
</g>
<!-- music_generation_lstm_processing -->
<g id="node16" class="node">
<title>music_generation_lstm_processing</title><style>.edge>path:hover{stroke-width:8}</style>
<ellipse fill="#47c2c2" stroke="black" cx="716.41" cy="-247.88" rx="44.72" ry="22.63"/>
<text xml:space="preserve" text-anchor="middle" x="716.41" y="-250.38" font-family="Helvetica,sans-Serif" font-size="10.00" fill="#000000">lstm.</text>
<text xml:space="preserve" text-anchor="middle" x="716.41" y="-238.38" font-family="Helvetica,sans-Serif" font-size="10.00" fill="#000000">processing</text>
</g>
<!-- music_generation_lstm_processing&#45;&gt;music_generation_lstm_controller -->
<g id="edge27" class="edge">
<title>music_generation_lstm_processing&#45;&gt;music_generation_lstm_controller</title><style>.edge>path:hover{stroke-width:8}</style>
<path fill="none" stroke="black" d="M681.77,-233.11C673.85,-230.26 665.4,-227.46 657.41,-225.25 568.29,-200.71 461.72,-183.25 400.75,-174.35"/>
<polygon fill="#47c2c2" stroke="black" points="401.45,-170.92 391.05,-172.96 400.45,-177.85 401.45,-170.92"/>
</g>
<!-- music_generation_lstm_processing_process&#45;&gt;music_generation_lstm_controller -->
<g id="edge28" class="edge">
<title>music_generation_lstm_processing_process&#45;&gt;music_generation_lstm_controller</title><style>.edge>path:hover{stroke-width:8}</style>
<path fill="none" stroke="black" d="M362.96,-315.13C343.47,-299.48 322.11,-276.28 320.41,-248.88"/>
</g>
<!-- music_generation_lstm_tokenization -->
<g id="node18" class="node">
<title>music_generation_lstm_tokenization</title><style>.edge>path:hover{stroke-width:8}</style>
<ellipse fill="#2fdbdb" stroke="black" cx="702.41" cy="-534.07" rx="48.44" ry="22.63"/>
<text xml:space="preserve" text-anchor="middle" x="702.41" y="-536.57" font-family="Helvetica,sans-Serif" font-size="10.00" fill="#000000">lstm.</text>
<text xml:space="preserve" text-anchor="middle" x="702.41" y="-524.57" font-family="Helvetica,sans-Serif" font-size="10.00" fill="#000000">tokenization</text>
</g>
<!-- music_generation_lstm_tokenization&#45;&gt;music_generation_lstm_controller -->
<g id="edge29" class="edge">
<title>music_generation_lstm_tokenization&#45;&gt;music_generation_lstm_controller</title><style>.edge>path:hover{stroke-width:8}</style>
<path fill="none" stroke="black" d="M643.41,-434.85C605.87,-391.07 658.08,-353.32 624.41,-306.51 570.03,-230.92 462.32,-193.76 399.67,-177.82"/>
<polygon fill="#2fdbdb" stroke="black" points="400.54,-174.43 389.99,-175.45 398.87,-181.23 400.54,-174.43"/>
</g>
<!-- music_generation_lstm_tokenization&#45;&gt;music_generation_lstm_managers_dataset_management -->
<g id="edge30" class="edge">
<title>music_generation_lstm_tokenization&#45;&gt;music_generation_lstm_managers_dataset_management</title><style>.edge>path:hover{stroke-width:8}</style>
<path fill="none" stroke="black" d="M643.41,-434.85C624.38,-412.66 600.47,-390.55 580.17,-373.13"/>
<polygon fill="#2fdbdb" stroke="black" points="582.47,-370.49 572.58,-366.7 577.95,-375.83 582.47,-370.49"/>
</g>
<!-- music_generation_lstm_tokenization&#45;&gt;music_generation_lstm_processing_process -->
<g id="edge31" class="edge">
<title>music_generation_lstm_tokenization&#45;&gt;music_generation_lstm_processing_process</title><style>.edge>path:hover{stroke-width:8}</style>
<path fill="none" stroke="black" d="M691.74,-511.51C681.08,-491.1 663.43,-460.2 643.41,-436.85"/>
<path fill="none" stroke="black" d="M643.41,-434.85C633.03,-422.74 467.05,-375.84 450.41,-368.74 447.05,-367.3 443.63,-365.73 440.23,-364.08"/>
<polygon fill="#2fdbdb" stroke="black" points="441.96,-361.03 431.46,-359.63 438.79,-367.28 441.96,-361.03"/>
</g>
<!-- music_generation_lstm_tokenization_tokenizer&#45;&gt;music_generation_lstm_controller -->
<g id="edge32" class="edge">
<title>music_generation_lstm_tokenization_tokenizer&#45;&gt;music_generation_lstm_controller</title><style>.edge>path:hover{stroke-width:8}</style>
<path fill="none" stroke="black" d="M487.24,-505.91C471.71,-486.74 450.57,-460.4 432.41,-436.85"/>
<path fill="none" stroke="black" d="M432.41,-434.85C392.33,-382.88 318.41,-404.22 320.41,-338.62"/>
</g>
<!-- music_generation_lstm_tokenization_tokenizer&#45;&gt;music_generation_lstm_managers_dataset_management -->
<g id="edge33" class="edge">
<title>music_generation_lstm_tokenization_tokenizer&#45;&gt;music_generation_lstm_managers_dataset_management</title><style>.edge>path:hover{stroke-width:8}</style>
<path fill="none" stroke="black" d="M543.33,-511.06C565.42,-493.76 589.89,-467.5 588.41,-436.85"/>
<path fill="none" stroke="black" d="M588.41,-434.85C587.41,-414.17 577.93,-393.57 567.41,-376.77"/>
<polygon fill="#1eaeae" stroke="black" points="570.44,-375 561.99,-368.61 564.61,-378.88 570.44,-375"/>
</g>
<!-- music_generation_lstm_tokenization_tokenizer&#45;&gt;music_generation_lstm_processing_process -->
<g id="edge34" class="edge">
<title>music_generation_lstm_tokenization_tokenizer&#45;&gt;music_generation_lstm_processing_process</title><style>.edge>path:hover{stroke-width:8}</style>
<path fill="none" stroke="black" d="M432.41,-434.85C419.92,-418.65 411.2,-397.74 405.39,-379.55"/>
<polygon fill="#1eaeae" stroke="black" points="408.78,-378.67 402.56,-370.09 402.07,-380.67 408.78,-378.67"/>
</g>
<!-- numpy -->
<g id="node20" class="node">
<title>numpy</title><style>.edge>path:hover{stroke-width:8}</style>
<polygon fill="#7f26d9" stroke="black" points="582.41,-674.19 579.41,-678.19 558.41,-678.19 555.41,-674.19 528.41,-674.19 528.41,-638.19 582.41,-638.19 582.41,-674.19"/>
<text xml:space="preserve" text-anchor="middle" x="555.41" y="-652.69" font-family="Helvetica,sans-Serif" font-size="10.00" fill="#ffffff">numpy</text>
</g>
<!-- numpy&#45;&gt;music_generation_lstm_managers_dataset_management -->
<g id="edge35" class="edge">
<title>numpy&#45;&gt;music_generation_lstm_managers_dataset_management</title><style>.edge>path:hover{stroke-width:8}</style>
<path fill="none" stroke="black" d="M702.41,-601.19C719.52,-576.59 744.94,-591.43 759.41,-565.19 772.76,-540.97 770.23,-528.41 759.41,-502.96 730.8,-435.7 657.55,-390.27 602.97,-364.53"/>
<polygon fill="#7f26d9" stroke="black" points="604.59,-361.42 594.04,-360.42 601.67,-367.78 604.59,-361.42"/>
</g>
<!-- numpy&#45;&gt;music_generation_lstm_models_train -->
<g id="edge36" class="edge">
<title>numpy&#45;&gt;music_generation_lstm_models_train</title><style>.edge>path:hover{stroke-width:8}</style>
<path fill="none" stroke="black" d="M531.52,-637.82C508.95,-620.77 474.84,-593.28 449.41,-565.19 426.84,-540.27 428.82,-528.02 406.41,-502.96 394.07,-489.17 378.94,-475.48 365.45,-464.17"/>
<polygon fill="#7f26d9" stroke="black" points="367.97,-461.71 358.02,-458.06 363.52,-467.12 367.97,-461.71"/>
</g>
<!-- numpy&#45;&gt;music_generation_lstm_processing_process -->
<g id="edge37" class="edge">
<title>numpy&#45;&gt;music_generation_lstm_processing_process</title><style>.edge>path:hover{stroke-width:8}</style>
<path fill="none" stroke="black" d="M582.73,-654.75C617.89,-652.49 677.4,-642.54 702.41,-602.19"/>
<path fill="none" stroke="black" d="M702.41,-601.19C718.18,-575.71 669.26,-583.31 645.41,-565.19 601.62,-531.92 487.57,-425.57 429.89,-371.24"/>
<polygon fill="#7f26d9" stroke="black" points="432.58,-368.97 422.9,-364.65 427.78,-374.06 432.58,-368.97"/>
</g>
</g>
</svg>
